<svg width="512" height="512" xmlns="http://www.w3.org/2000/svg">
  <!-- Background gradient -->
  <defs>
    <linearGradient id="bgGradient" x1="0%" y1="0%" x2="0%" y2="100%">
      <stop offset="0%" style="stop-color:#1e3a8a;stop-opacity:1" />
      <stop offset="100%" style="stop-color:#3b82f6;stop-opacity:1" />
    </linearGradient>
    <filter id="shadow">
      <feDropShadow dx="0" dy="4" stdDeviation="8" flood-opacity="0.3"/>
    </filter>
  </defs>

  <rect width="512" height="512" fill="url(#bgGradient)" rx="80"/>

  <!-- Main content group -->
  <g transform="translate(256, 200)">
    <!-- Large golden star with shadow -->
    <path d="M 0,-100 L 23,-30 L 97,-30 L 38,13 L 60,83 L 0,40 L -60,83 L -38,13 L -97,-30 L -23,-30 Z"
          fill="#fbbf24" filter="url(#shadow)"/>

    <!-- Star highlight -->
    <path d="M 0,-100 L 23,-30 L 97,-30 L 38,13 L 60,83 L 0,40 L -60,83 L -38,13 L -97,-30 L -23,-30 Z"
          fill="url(#starShine)" opacity="0.4"/>

    <!-- Inner star detail -->
    <path d="M 0,-70 L 15,-25 L 65,-25 L 25,5 L 40,50 L 0,25 L -40,50 L -25,5 L -65,-25 L -15,-25 Z"
          fill="#fef3c7" opacity="0.6"/>
  </g>

  <defs>
    <linearGradient id="starShine" x1="0%" y1="0%" x2="0%" y2="100%">
      <stop offset="0%" style="stop-color:#ffffff;stop-opacity:1" />
      <stop offset="100%" style="stop-color:#fbbf24;stop-opacity:0" />
    </linearGradient>
  </defs>

  <!-- Row of small stars showing rating scale -->
  <g transform="translate(85, 340)">
    <path d="M 0,-15 L 4,-5 L 15,-5 L 6,2 L 10,12 L 0,6 L -10,12 L -6,2 L -15,-5 L -4,-5 Z" fill="#fbbf24"/>
    <path d="M 40,-15 L 44,-5 L 55,-5 L 46,2 L 50,12 L 40,6 L 30,12 L 34,2 L 25,-5 L 36,-5 Z" fill="#fbbf24"/>
    <path d="M 80,-15 L 84,-5 L 95,-5 L 86,2 L 90,12 L 80,6 L 70,12 L 74,2 L 65,-5 L 76,-5 Z" fill="#fbbf24"/>
    <path d="M 120,-15 L 124,-5 L 135,-5 L 126,2 L 130,12 L 120,6 L 110,12 L 114,2 L 105,-5 L 116,-5 Z" fill="#fbbf24"/>
    <path d="M 160,-15 L 164,-5 L 175,-5 L 166,2 L 170,12 L 160,6 L 150,12 L 154,2 L 145,-5 L 156,-5 Z" fill="#fbbf24"/>
    <path d="M 200,-15 L 204,-5 L 215,-5 L 206,2 L 210,12 L 200,6 L 190,12 L 194,2 L 185,-5 L 196,-5 Z" fill="#d1d5db"/>
    <path d="M 240,-15 L 244,-5 L 255,-5 L 246,2 L 250,12 L 240,6 L 230,12 L 234,2 L 225,-5 L 236,-5 Z" fill="#d1d5db"/>
    <path d="M 280,-15 L 284,-5 L 295,-5 L 286,2 L 290,12 L 280,6 L 270,12 L 274,2 L 265,-5 L 276,-5 Z" fill="#d1d5db"/>
    <path d="M 320,-15 L 324,-5 L 335,-5 L 326,2 L 330,12 L 320,6 L 310,12 L 314,2 L 305,-5 L 316,-5 Z" fill="#d1d5db"/>
    <path d="M 360,-15 L 364,-5 L 375,-5 L 366,2 L 370,12 L 360,6 L 350,12 L 354,2 L 345,-5 L 356,-5 Z" fill="#d1d5db"/>
  </g>

  <!-- Text "RATINGS" with better visibility -->
  <text x="256" y="420" text-anchor="middle" font-family="Arial, sans-serif" font-size="64" font-weight="bold" fill="#1e293b" opacity="0.3">
    RATINGS
  </text>
  <text x="256" y="418" text-anchor="middle" font-family="Arial, sans-serif" font-size="64" font-weight="bold" fill="#ffffff">
    RATINGS
  </text>

  <!-- Subtitle -->
  <text x="256" y="460" text-anchor="middle" font-family="Arial, sans-serif" font-size="24" fill="#e2e8f0">
    1-10 Star Rating System
  </text>
</svg>
