<svg width="512" height="512" xmlns="http://www.w3.org/2000/svg">
  <!-- Background gradient -->
  <defs>
    <linearGradient id="bgGradient" x1="0%" y1="0%" x2="0%" y2="100%">
      <stop offset="0%" style="stop-color:#1e3a8a;stop-opacity:1" />
      <stop offset="100%" style="stop-color:#3b82f6;stop-opacity:1" />
    </linearGradient>
    <filter id="shadow">
      <feDropShadow dx="0" dy="4" stdDeviation="6" flood-opacity="0.3"/>
    </filter>
    <linearGradient id="starShine" x1="0%" y1="0%" x2="0%" y2="100%">
      <stop offset="0%" style="stop-color:#ffffff;stop-opacity:1" />
      <stop offset="100%" style="stop-color:#fbbf24;stop-opacity:0" />
    </linearGradient>
  </defs>

  <rect width="512" height="512" fill="url(#bgGradient)" rx="80"/>

  <!-- Main large star - centered and bigger -->
  <g transform="translate(256, 200) scale(0.85)">
    <!-- Large golden star with shadow -->
    <path d="M 0,-100 L 23,-30 L 97,-30 L 38,13 L 60,83 L 0,40 L -60,83 L -38,13 L -97,-30 L -23,-30 Z"
          fill="#fbbf24" filter="url(#shadow)"/>

    <!-- Star highlight -->
    <path d="M 0,-100 L 23,-30 L 97,-30 L 38,13 L 60,83 L 0,40 L -60,83 L -38,13 L -97,-30 L -23,-30 Z"
          fill="url(#starShine)" opacity="0.4"/>

    <!-- Inner star detail -->
    <path d="M 0,-70 L 15,-25 L 65,-25 L 25,5 L 40,50 L 0,25 L -40,50 L -25,5 L -65,-25 L -15,-25 Z"
          fill="#fef3c7" opacity="0.6"/>
  </g>

  <!-- Row of small stars showing rating scale - centered -->
  <g transform="translate(95, 380) scale(0.8)">
    <path d="M 0,-12 L 4,-4 L 13,-4 L 6,1 L 9,10 L 0,5 L -9,10 L -6,1 L -13,-4 L -4,-4 Z" fill="#fbbf24"/>
    <path d="M 35,-12 L 39,-4 L 48,-4 L 41,1 L 44,10 L 35,5 L 26,10 L 29,1 L 22,-4 L 31,-4 Z" fill="#fbbf24"/>
    <path d="M 70,-12 L 74,-4 L 83,-4 L 76,1 L 79,10 L 70,5 L 61,10 L 64,1 L 57,-4 L 66,-4 Z" fill="#fbbf24"/>
    <path d="M 105,-12 L 109,-4 L 118,-4 L 111,1 L 114,10 L 105,5 L 96,10 L 99,1 L 92,-4 L 101,-4 Z" fill="#fbbf24"/>
    <path d="M 140,-12 L 144,-4 L 153,-4 L 146,1 L 149,10 L 140,5 L 131,10 L 134,1 L 127,-4 L 136,-4 Z" fill="#fbbf24"/>
    <path d="M 175,-12 L 179,-4 L 188,-4 L 181,1 L 184,10 L 175,5 L 166,10 L 169,1 L 162,-4 L 171,-4 Z" fill="#d1d5db"/>
    <path d="M 210,-12 L 214,-4 L 223,-4 L 216,1 L 219,10 L 210,5 L 201,10 L 204,1 L 197,-4 L 206,-4 Z" fill="#d1d5db"/>
    <path d="M 245,-12 L 249,-4 L 258,-4 L 251,1 L 254,10 L 245,5 L 236,10 L 239,1 L 232,-4 L 241,-4 Z" fill="#d1d5db"/>
    <path d="M 280,-12 L 284,-4 L 293,-4 L 286,1 L 289,10 L 280,5 L 271,10 L 274,1 L 267,-4 L 276,-4 Z" fill="#d1d5db"/>
    <path d="M 315,-12 L 319,-4 L 328,-4 L 321,1 L 324,10 L 315,5 L 306,10 L 309,1 L 302,-4 L 311,-4 Z" fill="#d1d5db"/>
  </g>
</svg>
