<svg width="512" height="512" xmlns="http://www.w3.org/2000/svg">
  <!-- Background -->
  <rect width="512" height="512" fill="#00A4DC" rx="64"/>

  <!-- Star rating icon -->
  <g transform="translate(256, 256)">
    <!-- Large star in center -->
    <path d="M 0,-120 L 28,-36 L 116,-36 L 45,15 L 72,99 L 0,48 L -72,99 L -45,15 L -116,-36 L -28,-36 Z"
          fill="#FFD700" stroke="#FFA500" stroke-width="4"/>

    <!-- Small stars around -->
    <g transform="translate(-140, -80) scale(0.3)">
      <path d="M 0,-40 L 12,-15 L 40,-15 L 18,5 L 28,33 L 0,16 L -28,33 L -18,5 L -40,-15 L -12,-15 Z"
            fill="#FFFFFF" opacity="0.8"/>
    </g>
    <g transform="translate(140, -80) scale(0.3)">
      <path d="M 0,-40 L 12,-15 L 40,-15 L 18,5 L 28,33 L 0,16 L -28,33 L -18,5 L -40,-15 L -12,-15 Z"
            fill="#FFFFFF" opacity="0.8"/>
    </g>
    <g transform="translate(-140, 80) scale(0.3)">
      <path d="M 0,-40 L 12,-15 L 40,-15 L 18,5 L 28,33 L 0,16 L -28,33 L -18,5 L -40,-15 L -12,-15 Z"
            fill="#FFFFFF" opacity="0.8"/>
    </g>
    <g transform="translate(140, 80) scale(0.3)">
      <path d="M 0,-40 L 12,-15 L 40,-15 L 18,5 L 28,33 L 0,16 L -28,33 L -18,5 L -40,-15 L -12,-15 Z"
            fill="#FFFFFF" opacity="0.8"/>
    </g>

    <!-- Rating text -->
    <text x="0" y="165" text-anchor="middle" font-family="Arial, sans-serif" font-size="48" font-weight="bold" fill="#FFFFFF">
      RATINGS
    </text>
  </g>
</svg>
